<svg xmlns="http://www.w3.org/2000/svg" xmlns:xlink="http://www.w3.org/1999/xlink">
    <defs>
        <symbol viewBox="0 0 24 24" id="material-symbols-article">
            <path fill="currentColor" d="M5 21q-.825 0-1.412-.587T3 19V5q0-.825.588-1.412T5 3h14q.825 0 1.413.588T21 5v14q0 .825-.587 1.413T19 21zm2-4h7v-2H7zm0-4h10v-2H7zm0-4h10V7H7z"></path>
        </symbol>
        <symbol id="checkmark-icon"
            xmlns="http://www.w3.org/2000/svg" fill="currentColor" aria-hidden="true"
            class="w-3.5 h-3.5 mr-2 text-green-500 dark:text-green-400 flex-shrink-0"
            viewBox="0 0 20 20">
            <path
                d="M10 .5a9.5 9.5 0 1 0 9.5 9.5A9.51 9.51 0 0 0 10 .5Zm3.707 8.207-4 4a1 1 0 0 1-1.414 0l-2-2a1 1 0 0 1 1.414-1.414L9 10.586l3.293-3.293a1 1 0 0 1 1.414 1.414Z" />
        </symbol>
        <symbol viewBox="0 0 24 24" id="material-symbols-build">
            <path fill="currentColor" d="m17.15 20.7l-6.05-6.1q-.5.2-1.012.3T9 15q-2.5 0-4.25-1.75T3 9q0-.9.25-1.712t.7-1.538L7.6 9.4l1.8-1.8l-3.65-3.65q.725-.45 1.538-.7T9 3q2.5 0 4.25 1.75T15 9q0 .575-.1 1.088t-.3 1.012l6.1 6.05q.3.3.3.725t-.3.725l-2.1 2.1q-.3.3-.725.3t-.725-.3"></path>
        </symbol>
        <symbol viewBox="0 0 24 24" id="material-symbols-light-kid-star-sharp">
            <path fill="currentColor" d="M8.125 7.092L12 1.937l3.875 5.155l6.139 2.07l-3.941 5.336l.156 6.056L12 18.733l-6.229 1.82l.156-6.08l-3.915-5.312z"></path>
        </symbol>
        <symbol viewBox="0 0 21 21" id="system-uicons-reset">
            <g fill="none" fill-rule="evenodd" stroke="currentColor" stroke-linecap="round"
                stroke-linejoin="round">
                <path d="M3.578 6.487A8 8 0 1 1 2.5 10.5"></path>
                <path d="M7.5 6.5h-4v-4"></path>
            </g>
        </symbol>
        <symbol viewBox="0 0 24 24" id="material-symbols-home">
            <path fill="currentColor" d="M4 21V9l8-6l8 6v12h-6v-7h-4v7z"></path>
        </symbol>
        <symbol viewBox="0 0 24 24" id="material-symbols-playlist-add-check">
            <path fill="currentColor"
                d="M3 16v-2h8v2zm0-4v-2h12v2zm0-4V6h12v2zm13.35 11l-3.55-3.55l1.4-1.4l2.15 2.1l4.25-4.25l1.4 1.45z"></path>
        </symbol>
        <symbol viewBox="0 0 24 24" id="material-symbols-open-in-new-rounded">
            <path fill="currentColor"
                d="M5 21q-.825 0-1.412-.587T3 19V5q0-.825.588-1.412T5 3h6q.425 0 .713.288T12 4q0 .425-.288.713T11 5H5v14h14v-6q0-.425.288-.712T20 12q.425 0 .713.288T21 13v6q0 .825-.587 1.413T19 21zM19 6.4L10.4 15q-.275.275-.7.275T9 15q-.275-.275-.275-.7T9 13.6L17.6 5H15q-.425 0-.712-.288T14 4q0-.425.288-.712T15 3h6v6q0 .425-.288.713T20 10q-.425 0-.712-.288T19 9z"></path>
        </symbol>
        <symbol viewBox="0 0 24 24" id="mingcute-external-link-line">
            <g fill="none">
                <path
                    d="M24 0v24H0V0zM12.593 23.258l-.011.002l-.071.035l-.02.004l-.014-.004l-.071-.035c-.01-.004-.019-.001-.024.005l-.004.01l-.017.428l.005.02l.01.013l.104.074l.015.004l.012-.004l.104-.074l.012-.016l.004-.017l-.017-.427c-.002-.01-.009-.017-.017-.018m.265-.113l-.013.002l-.185.093l-.01.01l-.003.011l.018.43l.005.012l.008.007l.201.093c.012.004.023 0 .029-.008l.004-.014l-.034-.614c-.003-.012-.01-.02-.02-.022m-.715.002a.023.023 0 0 0-.027.006l-.006.014l-.034.614c0 .012.007.02.017.024l.015-.002l.201-.093l.01-.008l.004-.011l.017-.43l-.003-.012l-.01-.01z"></path>
                <path fill="currentColor"
                    d="M11 6a1 1 0 1 1 0 2H5v11h11v-6a1 1 0 1 1 2 0v6a2 2 0 0 1-2 2H5a2 2 0 0 1-2-2V8a2 2 0 0 1 2-2zm9-3a1 1 0 0 1 1 1v5a1 1 0 1 1-2 0V6.414l-8.293 8.293a1 1 0 0 1-1.414-1.414L17.586 5H15a1 1 0 1 1 0-2Z"></path>
            </g>
        </symbol>
        <symbol viewBox="0 0 24 24" id="material-symbols-text-decrease-rounded">
            <path fill="currentColor"
                d="M16 13q-.425 0-.712-.288T15 12q0-.425.288-.712T16 11h6q.425 0 .713.288T23 12q0 .425-.288.713T22 13zM4.675 15.425l-1.025 2.85q-.125.35-.4.538T2.625 19q-.575 0-.913-.487t-.137-1.038l4.4-11.725Q6.1 5.4 6.4 5.2t.65-.2h.9q.375 0 .663.2t.412.55L13.45 17.5q.2.55-.137 1.025T12.4 19q-.35 0-.65-.2t-.425-.55l-1-2.825zM5.4 13.4h4.2L7.55 7.6h-.1z"></path>
        </symbol>
        <symbol viewBox="0 0 24 24" id="material-symbols-text-increase-rounded">
            <path fill="currentColor"
                d="m4.675 15.425l-1.025 2.85q-.125.35-.4.538T2.625 19q-.575 0-.913-.487t-.137-1.038l4.4-11.725Q6.1 5.4 6.4 5.2t.65-.2h.9q.375 0 .663.2t.412.55L13.45 17.5q.2.55-.137 1.025T12.4 19q-.35 0-.65-.2t-.425-.55l-1-2.825zM5.4 13.4h4.2L7.55 7.6h-.1zM18 13h-2q-.425 0-.712-.288T15 12q0-.425.288-.712T16 11h2V9q0-.425.288-.712T19 8q.425 0 .713.288T20 9v2h2q.425 0 .713.288T23 12q0 .425-.288.713T22 13h-2v2q0 .425-.288.713T19 16q-.425 0-.712-.288T18 15z"></path>
        </symbol>
        <symbol viewBox="0 0 24 24" id="mdi-linkedin">
            <path fill="currentColor"
                d="M19 3a2 2 0 0 1 2 2v14a2 2 0 0 1-2 2H5a2 2 0 0 1-2-2V5a2 2 0 0 1 2-2zm-.5 15.5v-5.3a3.26 3.26 0 0 0-3.26-3.26c-.85 0-1.84.52-2.32 1.3v-1.11h-2.79v8.37h2.79v-4.93c0-.77.62-1.4 1.39-1.4a1.4 1.4 0 0 1 1.4 1.4v4.93zM6.88 8.56a1.68 1.68 0 0 0 1.68-1.68c0-.93-.75-1.69-1.68-1.69a1.69 1.69 0 0 0-1.69 1.69c0 .93.76 1.68 1.69 1.68m1.39 9.94v-8.37H5.5v8.37z"></path>
        </symbol>
        <symbol viewBox="0 0 24 24" id="mdi-email">
            <path fill="currentColor"
                d="m20 8l-8 5l-8-5V6l8 5l8-5m0-2H4c-1.11 0-2 .89-2 2v12a2 2 0 0 0 2 2h16a2 2 0 0 0 2-2V6a2 2 0 0 0-2-2"></path>
        </symbol>
        <symbol viewBox="0 0 24 24" id="mdi-twitter">
            <path fill="currentColor"
                d="M22.46 6c-.77.35-1.6.58-2.46.69c.88-.53 1.56-1.37 1.88-2.38c-.83.5-1.75.85-2.72 1.05C18.37 4.5 17.26 4 16 4c-2.35 0-4.27 1.92-4.27 4.29c0 .34.04.67.11.98C8.28 9.09 5.11 7.38 3 4.79c-.37.63-.58 1.37-.58 2.15c0 1.49.75 2.81 1.91 3.56c-.71 0-1.37-.2-1.95-.5v.03c0 2.08 1.48 3.82 3.44 4.21a4.22 4.22 0 0 1-1.93.07a4.28 4.28 0 0 0 4 2.98a8.521 8.521 0 0 1-5.33 1.84c-.34 0-.68-.02-1.02-.06C3.44 20.29 5.7 21 8.12 21C16 21 20.33 14.46 20.33 8.79c0-.19 0-.37-.01-.56c.84-.6 1.56-1.36 2.14-2.23"></path>
        </symbol>
        <symbol viewBox="0 0 24 24" id="mdi-github">
            <path fill="currentColor"
                d="M12 2A10 10 0 0 0 2 12c0 4.42 2.87 8.17 6.84 9.5c.5.08.66-.23.66-.5v-1.69c-2.77.6-3.36-1.34-3.36-1.34c-.46-1.16-1.11-1.47-1.11-1.47c-.91-.62.07-.6.07-.6c1 .07 1.53 1.03 1.53 1.03c.87 1.52 2.34 1.07 2.91.83c.09-.65.35-1.09.63-1.34c-2.22-.25-4.55-1.11-4.55-4.92c0-1.11.38-2 1.03-2.71c-.1-.25-.45-1.29.1-2.64c0 0 .84-.27 2.75 1.02c.79-.22 1.65-.33 2.5-.33c.85 0 1.71.11 2.5.33c1.91-1.29 2.75-1.02 2.75-1.02c.55 1.35.2 2.39.1 2.64c.65.71 1.03 1.6 1.03 2.71c0 3.82-2.34 4.66-4.57 4.91c.36.31.69.92.69 1.85V21c0 .27.16.59.67.5C19.14 20.16 22 16.42 22 12A10 10 0 0 0 12 2"></path>
        </symbol>
        <symbol viewBox="0 0 24 24" id="material-symbols-dark-mode-outline-rounded">
            <path fill="currentColor"
                d="M12 21q-3.775 0-6.387-2.613T3 12q0-3.45 2.25-5.988T11 3.05q.325-.05.575.088t.4.362q.15.225.163.525t-.188.575q-.425.65-.638 1.375T11.1 7.5q0 2.25 1.575 3.825T16.5 12.9q.775 0 1.538-.225t1.362-.625q.275-.175.563-.162t.512.137q.25.125.388.375t.087.6q-.35 3.45-2.937 5.725T12 21m0-2q2.2 0 3.95-1.213t2.55-3.162q-.5.125-1 .2t-1 .075q-3.075 0-5.238-2.163T9.1 7.5q0-.5.075-1t.2-1q-1.95.8-3.163 2.55T5 12q0 2.9 2.05 4.95T12 19m-.25-6.75"></path>
        </symbol>
        <symbol viewBox="0 0 24 24" id="material-symbols-light-mode-outline-rounded">
            <path fill="currentColor"
                d="M12 15q1.25 0 2.125-.875T15 12q0-1.25-.875-2.125T12 9q-1.25 0-2.125.875T9 12q0 1.25.875 2.125T12 15m0 2q-2.075 0-3.537-1.463T7 12q0-2.075 1.463-3.537T12 7q2.075 0 3.538 1.463T17 12q0 2.075-1.463 3.538T12 17M2 13q-.425 0-.712-.288T1 12q0-.425.288-.712T2 11h2q.425 0 .713.288T5 12q0 .425-.288.713T4 13zm18 0q-.425 0-.712-.288T19 12q0-.425.288-.712T20 11h2q.425 0 .713.288T23 12q0 .425-.288.713T22 13zm-8-8q-.425 0-.712-.288T11 4V2q0-.425.288-.712T12 1q.425 0 .713.288T13 2v2q0 .425-.288.713T12 5m0 18q-.425 0-.712-.288T11 22v-2q0-.425.288-.712T12 19q.425 0 .713.288T13 20v2q0 .425-.288.713T12 23M5.65 7.05L4.575 6q-.3-.275-.288-.7t.288-.725q.3-.3.725-.3t.7.3L7.05 5.65q.275.3.275.7t-.275.7q-.275.3-.687.288T5.65 7.05M18 19.425l-1.05-1.075q-.275-.3-.275-.712t.275-.688q.275-.3.688-.287t.712.287L19.425 18q.3.275.288.7t-.288.725q-.3.3-.725.3t-.7-.3M16.95 7.05q-.3-.275-.288-.687t.288-.713L18 4.575q.275-.3.7-.288t.725.288q.3.3.3.725t-.3.7L18.35 7.05q-.3.275-.7.275t-.7-.275M4.575 19.425q-.3-.3-.3-.725t.3-.7l1.075-1.05q.3-.275.712-.275t.688.275q.3.275.288.688t-.288.712L6 19.425q-.275.3-.7.288t-.725-.288M12 12"></path>
        </symbol>
    </defs>
</svg>